<svg width="48" height="48" viewBox="0 0 48 48" fill="none" xmlns="http://www.w3.org/2000/svg">
<rect opacity="0.1" width="48" height="48" fill="#EDDDFC"/>
<path d="M8 24H13.5C16.5376 24 19 21.5376 19 18.5C19 15.4624 16.5376 13 13.5 13H8V24ZM8 24H16.6429C19.6804 24 22.1429 26.4624 22.1429 29.5C22.1429 32.5376 19.6804 35 16.6429 35H8V24ZM26.8571 28.7143H39.4286C39.4286 25.2428 36.6144 22.4286 33.1429 22.4286C29.6714 22.4286 26.8571 25.2428 26.8571 28.7143ZM26.8571 28.7143C26.8571 32.1858 29.6714 35 33.1429 35C34.4769 35 35.7138 34.5844 36.7313 33.8757M26.0714 16.1429H40.2143" stroke="#F5F5FE"/>
</svg>
