<svg width="48" height="48" viewBox="0 0 48 48" fill="none" xmlns="http://www.w3.org/2000/svg">
<rect opacity="0.1" width="48" height="48" fill="#EDDDFC"/>
<path d="M32.6939 37.9391L32.3676 38.3179C32.4625 38.3996 32.5845 38.4428 32.7097 38.4388L32.6939 37.9391ZM29.8111 34.4811C29.64 34.2643 29.3256 34.2273 29.1088 34.3985C28.8921 34.5696 28.8551 34.884 29.0262 35.1007L29.8111 34.4811ZM31.1946 33.1763L31.0207 32.7075C31.014 32.71 31.0075 32.7126 31.0009 32.7153L31.1946 33.1763ZM27.293 34.3334L27.2091 33.8405L27.2009 33.842L27.293 34.3334ZM20.3239 34.3066L20.2291 34.7975L20.2321 34.7981L20.3239 34.3066ZM16.3684 33.1496L16.1862 33.6152L16.1867 33.6154L16.3684 33.1496ZM14.4039 32.2347L14.1259 32.6502C14.1369 32.6576 14.1481 32.6645 14.1597 32.6709L14.4039 32.2347ZM14.1618 32.1L14.4394 31.6841C14.4221 31.6726 14.4041 31.6621 14.3855 31.6528L14.1618 32.1ZM14.0542 32.0195L14.4078 31.6659C14.375 31.6331 14.3377 31.6049 14.2971 31.5824L14.0542 32.0195ZM18.4022 35.0468C18.5733 34.83 18.5362 34.5156 18.3195 34.3445C18.1027 34.1734 17.7883 34.2105 17.6172 34.4272L18.4022 35.0468ZM14.7347 37.9391L14.7189 38.4388C14.8462 38.4428 14.9702 38.3981 15.0657 38.3138L14.7347 37.9391ZM8 32.8805H7.5C7.5 32.9072 7.50215 32.9339 7.50642 32.9603L8 32.8805ZM11.8747 13.8256L11.5747 13.4256C11.4982 13.483 11.4397 13.5612 11.4062 13.6509L11.8747 13.8256ZM19.4358 11.0002L19.9336 10.9528C19.9095 10.7004 19.7003 10.5059 19.4468 10.5003L19.4358 11.0002ZM19.2072 13.8732C19.2334 14.1481 19.4774 14.3497 19.7523 14.3235C20.0272 14.2973 20.2288 14.0532 20.2027 13.7783L19.2072 13.8732ZM27.1199 13.8697C27.0848 14.1435 27.2783 14.3941 27.5522 14.4293C27.8261 14.4645 28.0766 14.2709 28.1118 13.997L27.1199 13.8697ZM27.9926 11.0004L27.9816 10.5005C27.7343 10.506 27.5282 10.6914 27.4966 10.9367L27.9926 11.0004ZM35.5537 13.8257L36.0221 13.651C35.9887 13.5614 35.9302 13.4832 35.8537 13.4258L35.5537 13.8257ZM39.4286 32.8805L39.9221 32.9603C39.9264 32.9339 39.9286 32.9072 39.9286 32.8805H39.4286ZM21.427 27.3911L20.927 27.3829V27.3911H21.427ZM32.6939 37.9391C33.0202 37.5602 33.0202 37.5602 33.0202 37.5602C33.0202 37.5602 33.0202 37.5602 33.0201 37.5602C33.0201 37.5601 33.02 37.56 33.0198 37.5599C33.0196 37.5597 33.0192 37.5593 33.0186 37.5589C33.0175 37.5579 33.0158 37.5564 33.0135 37.5545C33.009 37.5506 33.0022 37.5447 32.9932 37.5369C32.9753 37.5214 32.9487 37.4983 32.9146 37.4686C32.8462 37.4091 32.7475 37.3228 32.6264 37.216C32.3842 37.0023 32.0531 36.7069 31.6972 36.3801C30.9744 35.7164 30.1859 34.9557 29.8111 34.4811L29.0262 35.1007C29.4588 35.6486 30.3079 36.462 31.0208 37.1167C31.3829 37.4492 31.7192 37.7491 31.9649 37.9659C32.0878 38.0743 32.1882 38.1621 32.258 38.2228C32.2929 38.2532 32.3201 38.2769 32.3387 38.293C32.348 38.301 32.3552 38.3072 32.36 38.3114C32.3624 38.3135 32.3643 38.3151 32.3656 38.3162C32.3662 38.3167 32.3667 38.3171 32.367 38.3174C32.3672 38.3176 32.3673 38.3177 32.3674 38.3178C32.3674 38.3178 32.3675 38.3178 32.3675 38.3178C32.3675 38.3179 32.3676 38.3179 32.6939 37.9391ZM34.0141 31.1713C32.9424 31.877 31.927 32.3712 31.0207 32.7075L31.3686 33.645C32.3458 33.2824 33.4291 32.7538 34.5641 32.0064L34.0141 31.1713ZM31.0009 32.7153C29.6884 33.2668 28.4335 33.632 27.2091 33.8405L27.377 34.8263C28.6818 34.6041 30.0102 34.2162 31.3883 33.6372L31.0009 32.7153ZM27.2009 33.842C24.6896 34.3128 22.3852 34.1827 20.4156 33.8151L20.2321 34.7981C22.2986 35.1838 24.7299 35.3227 27.3852 34.8249L27.2009 33.842ZM20.4187 33.8156C18.9213 33.5265 17.6324 33.1061 16.5502 32.6838L16.1867 33.6154C17.3107 34.054 18.6587 34.4943 20.2291 34.7975L20.4187 33.8156ZM16.5506 32.684C15.9454 32.4471 15.295 32.1605 14.6482 31.7984L14.1597 32.6709C14.8585 33.0622 15.5535 33.3676 16.1862 33.6152L16.5506 32.684ZM14.6819 31.8191C14.6116 31.7721 14.5439 31.7388 14.5067 31.7202C14.463 31.6984 14.45 31.6912 14.4394 31.6841L13.8843 32.5159C13.9545 32.5627 14.0222 32.5959 14.0592 32.6145C14.1027 32.6362 14.1156 32.6434 14.1259 32.6502L14.6819 31.8191ZM14.3855 31.6528C14.387 31.6536 14.3905 31.6554 14.3954 31.6585C14.4003 31.6617 14.4053 31.6653 14.4098 31.6689C14.4142 31.6724 14.4169 31.6749 14.4171 31.6751C14.4171 31.6751 14.4169 31.6749 14.4166 31.6746C14.4162 31.6743 14.4157 31.6737 14.4149 31.673C14.4132 31.6713 14.4112 31.6693 14.4078 31.6659L13.7007 32.373C13.7387 32.411 13.8114 32.4838 13.9382 32.5472L14.3855 31.6528ZM14.2971 31.5824C14.0638 31.4528 13.8835 31.3432 13.7629 31.2671C13.7026 31.229 13.6573 31.1993 13.6278 31.1796C13.613 31.1698 13.6022 31.1624 13.5955 31.1578C13.5921 31.1555 13.5897 31.1539 13.5884 31.153C13.5878 31.1525 13.5873 31.1522 13.5872 31.1521C13.5871 31.1521 13.5871 31.1521 13.5872 31.1521C13.5872 31.1521 13.5872 31.1522 13.5873 31.1522C13.5873 31.1522 13.5874 31.1522 13.5874 31.1523C13.5874 31.1523 13.5875 31.1523 13.5875 31.1523C13.5875 31.1523 13.5875 31.1524 13.3008 31.562C13.0141 31.9716 13.0141 31.9716 13.0142 31.9717C13.0142 31.9717 13.0142 31.9717 13.0143 31.9717C13.0143 31.9718 13.0144 31.9718 13.0144 31.9718C13.0146 31.9719 13.0147 31.972 13.0149 31.9721C13.0152 31.9724 13.0156 31.9726 13.016 31.9729C13.0169 31.9736 13.0181 31.9744 13.0195 31.9754C13.0224 31.9773 13.0263 31.98 13.0312 31.9834C13.0411 31.9901 13.0551 31.9996 13.0731 32.0117C13.1092 32.0357 13.1614 32.0699 13.2289 32.1125C13.3639 32.1978 13.5604 32.317 13.8114 32.4565L14.2971 31.5824ZM17.6172 34.4272C17.2408 34.9042 16.4503 35.6795 15.7276 36.3567C15.3716 36.6904 15.0402 36.9926 14.7978 37.2114C14.6767 37.3208 14.5779 37.4093 14.5095 37.4703C14.4753 37.5007 14.4487 37.5244 14.4308 37.5403C14.4218 37.5483 14.415 37.5543 14.4104 37.5584C14.4081 37.5604 14.4064 37.5619 14.4053 37.5629C14.4048 37.5634 14.4043 37.5637 14.4041 37.564C14.4039 37.5641 14.4038 37.5642 14.4038 37.5642C14.4038 37.5642 14.4037 37.5643 14.4037 37.5643C14.4037 37.5643 14.4037 37.5643 14.7347 37.9391C15.0657 38.3138 15.0657 38.3138 15.0657 38.3138C15.0657 38.3138 15.0658 38.3137 15.0658 38.3137C15.0659 38.3136 15.066 38.3135 15.0662 38.3133C15.0665 38.3131 15.067 38.3126 15.0677 38.3121C15.0689 38.311 15.0708 38.3093 15.0732 38.3072C15.078 38.3029 15.0852 38.2966 15.0944 38.2883C15.113 38.2719 15.1402 38.2477 15.1751 38.2166C15.2448 38.1544 15.3452 38.0646 15.468 37.9537C15.7136 37.7319 16.0496 37.4254 16.4114 37.0864C17.1245 36.4182 17.9715 35.5925 18.4022 35.0468L17.6172 34.4272ZM14.7505 37.4393C11.936 37.3502 10.3899 36.1645 9.53582 35.0372C9.10252 34.4653 8.83987 33.8977 8.68603 33.4738C8.60928 33.2624 8.5602 33.0883 8.53073 32.9696C8.51602 32.9103 8.50624 32.8651 8.50038 32.8361C8.49745 32.8216 8.49551 32.8112 8.49442 32.8052C8.49387 32.8022 8.49354 32.8003 8.49341 32.7995C8.49334 32.7991 8.49332 32.799 8.49335 32.7992C8.49337 32.7993 8.49339 32.7995 8.49343 32.7997C8.49345 32.7998 8.49349 32.8001 8.4935 32.8001C8.49354 32.8004 8.49358 32.8006 8 32.8805C7.50642 32.9603 7.50647 32.9606 7.50652 32.961C7.50654 32.9611 7.5066 32.9614 7.50664 32.9617C7.50673 32.9622 7.50683 32.9628 7.50694 32.9635C7.50717 32.9649 7.50745 32.9665 7.50778 32.9685C7.50845 32.9724 7.50934 32.9775 7.51047 32.9837C7.51272 32.9961 7.51593 33.0131 7.52022 33.0343C7.52881 33.0768 7.54176 33.1363 7.5602 33.2106C7.59706 33.359 7.65599 33.5669 7.74602 33.815C7.92574 34.3101 8.23174 34.9719 8.73876 35.6411C9.76532 36.996 11.5866 38.3396 14.7189 38.4388L14.7505 37.4393ZM8.5 32.8805C8.5 28.6118 9.45624 23.8965 10.4209 20.2311C10.9022 18.4022 11.3836 16.8422 11.7445 15.74C11.9249 15.1891 12.075 14.7528 12.1799 14.4549C12.2323 14.306 12.2734 14.1917 12.3012 14.1149C12.3152 14.0765 12.3258 14.0475 12.3328 14.0283C12.3364 14.0187 12.339 14.0115 12.3408 14.0068C12.3416 14.0045 12.3423 14.0028 12.3427 14.0017C12.3429 14.0011 12.343 14.0007 12.3431 14.0005C12.3432 14.0004 12.3432 14.0003 12.3432 14.0003C12.3432 14.0002 12.3432 14.0003 11.8747 13.8256C11.4062 13.6509 11.4062 13.651 11.4061 13.6511C11.4061 13.6512 11.406 13.6514 11.406 13.6516C11.4058 13.652 11.4056 13.6525 11.4053 13.6533C11.4048 13.6547 11.404 13.6567 11.4031 13.6594C11.4011 13.6648 11.3982 13.6727 11.3944 13.683C11.3868 13.7036 11.3756 13.734 11.3612 13.7738C11.3323 13.8535 11.2901 13.9709 11.2366 14.123C11.1295 14.4271 10.977 14.8704 10.7941 15.4289C10.4285 16.5457 9.94116 18.1249 9.45383 19.9766C8.48112 23.6726 7.5 28.4848 7.5 32.8805H8.5ZM12.1747 14.2256C14.0485 12.8202 15.874 12.139 17.2268 11.8089C17.9033 11.6438 18.4608 11.5667 18.8457 11.5309C19.038 11.5129 19.187 11.5053 19.2858 11.5022C19.3353 11.5006 19.3721 11.5001 19.3956 11.5C19.4073 11.5 19.4157 11.5 19.4206 11.5001C19.4231 11.5001 19.4247 11.5001 19.4254 11.5001C19.4257 11.5001 19.4259 11.5001 19.4258 11.5001C19.4257 11.5001 19.4256 11.5001 19.4255 11.5001C19.4254 11.5001 19.4253 11.5001 19.4252 11.5001C19.425 11.5001 19.4249 11.5001 19.4358 11.0002C19.4468 10.5003 19.4465 10.5003 19.4463 10.5003C19.4462 10.5003 19.446 10.5003 19.4458 10.5003C19.4454 10.5003 19.445 10.5003 19.4445 10.5003C19.4435 10.5003 19.4423 10.5003 19.4409 10.5002C19.438 10.5002 19.4343 10.5001 19.4296 10.5001C19.4204 10.5 19.4076 10.5 19.3914 10.5C19.3589 10.5002 19.3128 10.5008 19.2539 10.5027C19.136 10.5065 18.9667 10.5153 18.7529 10.5352C18.3255 10.575 17.7192 10.6594 16.9898 10.8374C15.5307 11.1934 13.5756 11.9249 11.5747 13.4256L12.1747 14.2256ZM18.9381 11.0476L19.2072 13.8732L20.2027 13.7783L19.9336 10.9528L18.9381 11.0476ZM28.1118 13.997L28.4885 11.0641L27.4966 10.9367L27.1199 13.8697L28.1118 13.997ZM27.9926 11.0004C28.0035 11.5003 28.0034 11.5003 28.0032 11.5003C28.0032 11.5003 28.003 11.5003 28.0029 11.5003C28.0028 11.5003 28.0027 11.5003 28.0026 11.5003C28.0025 11.5003 28.0027 11.5003 28.003 11.5003C28.0038 11.5003 28.0053 11.5003 28.0078 11.5002C28.0127 11.5002 28.0211 11.5002 28.0328 11.5002C28.0563 11.5003 28.0931 11.5008 28.1426 11.5024C28.2414 11.5055 28.3904 11.5131 28.5827 11.531C28.9676 11.5669 29.5251 11.6439 30.2016 11.809C31.5544 12.1391 33.3798 12.8203 35.2536 14.2257L35.8537 13.4258C33.8528 11.925 31.8976 11.1935 30.4386 10.8375C29.7092 10.6595 29.1029 10.5751 28.6755 10.5353C28.4617 10.5154 28.2924 10.5066 28.1745 10.5029C28.1156 10.501 28.0694 10.5003 28.037 10.5002C28.0208 10.5001 28.008 10.5002 27.9987 10.5003C27.9941 10.5003 27.9903 10.5004 27.9875 10.5004C27.986 10.5004 27.9848 10.5005 27.9839 10.5005C27.9834 10.5005 27.9829 10.5005 27.9826 10.5005C27.9824 10.5005 27.9821 10.5005 27.982 10.5005C27.9818 10.5005 27.9816 10.5005 27.9926 11.0004ZM35.5537 13.8257C35.0852 14.0005 35.0852 14.0004 35.0852 14.0005C35.0852 14.0005 35.0852 14.0006 35.0853 14.0007C35.0853 14.0009 35.0855 14.0013 35.0857 14.0019C35.0861 14.0029 35.0867 14.0047 35.0876 14.007C35.0893 14.0117 35.092 14.0189 35.0955 14.0285C35.1026 14.0477 35.1132 14.0767 35.1272 14.1151C35.155 14.1919 35.1961 14.3062 35.2485 14.4551C35.3534 14.753 35.5035 15.1893 35.6839 15.7402C36.0448 16.8423 36.5262 18.4023 37.0076 20.2312C37.9723 23.8966 38.9286 28.6118 38.9286 32.8805H39.9286C39.9286 28.4847 38.9474 23.6726 37.9746 19.9767C37.4873 18.125 37 16.5459 36.6343 15.429C36.4514 14.8705 36.2989 14.4273 36.1918 14.1231C36.1383 13.971 36.0961 13.8537 36.0672 13.774C36.0527 13.7342 36.0416 13.7038 36.034 13.6831C36.0302 13.6728 36.0273 13.665 36.0253 13.6596C36.0243 13.6569 36.0236 13.6549 36.023 13.6534C36.0228 13.6527 36.0226 13.6522 36.0224 13.6518C36.0223 13.6516 36.0223 13.6514 36.0222 13.6513C36.0222 13.6511 36.0221 13.651 35.5537 13.8257ZM39.4286 32.8805C38.935 32.8006 38.935 32.8003 38.9351 32.8001C38.9351 32.8 38.9351 32.7998 38.9351 32.7997C38.9352 32.7995 38.9352 32.7993 38.9352 32.7992C38.9353 32.799 38.9352 32.7991 38.9352 32.7995C38.935 32.8003 38.9347 32.8022 38.9342 32.8052C38.9331 32.8112 38.9311 32.8216 38.9282 32.8361C38.9223 32.8651 38.9126 32.9103 38.8978 32.9696C38.8684 33.0883 38.8193 33.2623 38.7425 33.4738C38.5887 33.8977 38.326 34.4653 37.8927 35.0372C37.0386 36.1645 35.4925 37.3502 32.678 37.4393L32.7097 38.4388C35.8419 38.3396 37.6632 36.996 38.6897 35.6411C39.1968 34.9719 39.5028 34.3102 39.6825 33.815C39.7726 33.5669 39.8315 33.359 39.8684 33.2106C39.8868 33.1364 39.8998 33.0768 39.9083 33.0343C39.9126 33.0131 39.9158 32.9961 39.9181 32.9837C39.9192 32.9775 39.9201 32.9724 39.9208 32.9685C39.9211 32.9666 39.9214 32.9649 39.9216 32.9635C39.9217 32.9629 39.9218 32.9622 39.9219 32.9617C39.922 32.9614 39.922 32.9611 39.922 32.961C39.9221 32.9607 39.9221 32.9603 39.4286 32.8805ZM18.6824 23.9045C16.8307 23.9045 15.438 25.5175 15.438 27.3911H16.438C16.438 25.9821 17.4667 24.9045 18.6824 24.9045V23.9045ZM15.438 27.3911C15.438 29.2682 16.8606 30.878 18.6824 30.878V29.878C17.4905 29.878 16.438 28.797 16.438 27.3911H15.438ZM18.6824 30.878C20.5343 30.878 21.927 29.2649 21.927 27.3911H20.927C20.927 28.8003 19.8983 29.878 18.6824 29.878V30.878ZM21.9269 27.3993C21.958 25.5113 20.527 23.9045 18.6824 23.9045V24.9045C19.9052 24.9045 20.95 25.9883 20.927 27.3829L21.9269 27.3993ZM28.5039 23.9045C26.6521 23.9045 25.2592 25.5174 25.2592 27.3911H26.2592C26.2592 25.9822 27.288 24.9045 28.5039 24.9045V23.9045ZM25.2592 27.3911C25.2592 29.2683 26.6822 30.878 28.5039 30.878V29.878C27.312 29.878 26.2592 28.7969 26.2592 27.3911H25.2592ZM28.5039 30.878C30.3557 30.878 31.7483 29.2649 31.7483 27.3911H30.7483C30.7483 28.8003 29.7196 29.878 28.5039 29.878V30.878ZM31.7483 27.3911C31.7483 25.5175 30.3556 23.9045 28.5039 23.9045V24.9045C29.7196 24.9045 30.7483 25.9821 30.7483 27.3911H31.7483ZM14.9741 17.0514C18.2645 15.2569 21.0076 14.3844 23.7192 14.3831C26.4306 14.3817 29.1702 15.2514 32.4536 17.0509L32.9342 16.174C29.5676 14.3288 26.6588 13.3816 23.7187 13.3831C20.779 13.3845 17.8675 14.3344 14.4953 16.1735L14.9741 17.0514Z" fill="#F5F5FE"/>
</svg>
