<svg width="48" height="48" viewBox="0 0 48 48" fill="none" xmlns="http://www.w3.org/2000/svg">
<rect opacity="0.1" width="48" height="48" fill="#EDDDFC"/>
<path d="M32.025 16H33.575M14.2 8H32.8C36.2242 8 39 10.8654 39 14.4V33.6C39 37.1346 36.2242 40 32.8 40H14.2C10.7758 40 8 37.1346 8 33.6V14.4C8 10.8654 10.7758 8 14.2 8ZM23.5 30.4C20.0758 30.4 17.3 27.5346 17.3 24C17.3 20.4654 20.0758 17.6 23.5 17.6C26.9242 17.6 29.7 20.4654 29.7 24C29.7 27.5346 26.9242 30.4 23.5 30.4Z" stroke="#F5F5FE"/>
</svg>
